<svg xmlns="http://www.w3.org/2000/svg" viewBox="-40 -40 80 80" width="64" height="64">
  <defs>
    <linearGradient id="fg" x1="0%" y1="0%" x2="100%" y2="100%">
      <stop offset="0%" stop-color="#d4af37"/>
      <stop offset="100%" stop-color="#fcecba"/>
    </linearGradient>
    <filter id="g">
      <feGaussianBlur stdDeviation="1.5" result="b"/>
      <feMerge><feMergeNode in="b"/><feMergeNode in="SourceGraphic"/></feMerge>
    </filter>
  </defs>
  <circle cx="0" cy="0" r="38" fill="#05060A"/>
  <g filter="url(#g)">
    <line x1="-28" y1="-22" x2="-10" y2="-8" stroke="#d4af37" stroke-width="1" opacity="0.5"/>
    <line x1="-28" y1="-22" x2="-22" y2="10" stroke="#6b8cba" stroke-width="1" opacity="0.4"/>
    <line x1="-10" y1="-8" x2="8" y2="-24" stroke="#d4af37" stroke-width="1" opacity="0.5"/>
    <line x1="-10" y1="-8" x2="-6" y2="18" stroke="#d4af37" stroke-width="1" opacity="0.45"/>
    <line x1="-10" y1="-8" x2="14" y2="6" stroke="#6b8cba" stroke-width="1" opacity="0.4"/>
    <line x1="8" y1="-24" x2="28" y2="-14" stroke="#d4af37" stroke-width="1" opacity="0.5"/>
    <line x1="8" y1="-24" x2="14" y2="6" stroke="#d4af37" stroke-width="1" opacity="0.45"/>
    <line x1="14" y1="6" x2="28" y2="-14" stroke="#6b8cba" stroke-width="1" opacity="0.4"/>
    <line x1="14" y1="6" x2="26" y2="24" stroke="#d4af37" stroke-width="1" opacity="0.5"/>
    <line x1="-6" y1="18" x2="26" y2="24" stroke="#d4af37" stroke-width="1" opacity="0.45"/>
    <line x1="-22" y1="10" x2="-6" y2="18" stroke="#d4af37" stroke-width="1" opacity="0.5"/>
    <line x1="-22" y1="10" x2="-30" y2="28" stroke="#6b8cba" stroke-width="1" opacity="0.4"/>
    <circle cx="-28" cy="-22" r="5" fill="#d4af37" opacity="0.9"/>
    <circle cx="-10" cy="-8" r="7" fill="url(#fg)"/>
    <circle cx="8" cy="-24" r="4.5" fill="#d4af37" opacity="0.85"/>
    <circle cx="14" cy="6" r="5.5" fill="#d4af37" opacity="0.9"/>
    <circle cx="-6" cy="18" r="4" fill="#d4af37" opacity="0.8"/>
    <circle cx="26" cy="24" r="4.5" fill="#d4af37" opacity="0.85"/>
    <circle cx="-22" cy="10" r="3.5" fill="#6b8cba" opacity="0.7"/>
    <circle cx="28" cy="-14" r="4" fill="#6b8cba" opacity="0.7"/>
    <circle cx="-30" cy="28" r="3" fill="#6b8cba" opacity="0.5"/>
  </g>
</svg>
